<svg xmlns="http://www.w3.org/2000/svg" viewBox="0 0 100 100">
  <defs>
    <linearGradient id="pb-grad" x1="0%" y1="0%" x2="100%" y2="100%">
      <stop offset="0%" stop-color="#BDB2FF" />
      <stop offset="100%" stop-color="#A0C4FF" />
    </linearGradient>
    <clipPath id="pb-clip">
      <text x="50" y="74" font-family="'Ubuntu', 'Poppins', 'Segoe UI', sans-serif" font-weight="900" font-size="76" text-anchor="middle" letter-spacing="-3">PB</text>
    </clipPath>
  </defs>

  <!-- Base text with very low opacity gradient for soft faded outline structure -->
  <text x="50" y="74" font-family="'Ubuntu', 'Poppins', 'Segoe UI', sans-serif" font-weight="900" font-size="76" fill="url(#pb-grad)" text-anchor="middle" letter-spacing="-3" opacity="0.18" />

  <!-- Clipped scattered dots on top to create the bikhra (dispersed/speckled) effect -->
  <g clip-path="url(#pb-clip)">
    <!-- Base background noise gradient with faded opacity -->
    <rect x="0" y="0" width="100" height="100" fill="url(#pb-grad)" opacity="0.08" />
    
    <!-- Scattered circles -->
  <circle cx="86.51" cy="38.75" r="3.42" fill="#CAE9FF" opacity="0.62" />
  <circle cx="9.64" cy="46.69" r="3.18" fill="#B49CFF" opacity="0.39" />
  <circle cx="65.17" cy="44.23" r="2.31" fill="#C8B6FF" opacity="0.52" />
  <circle cx="86.62" cy="36.22" r="1.45" fill="#8ECAE6" opacity="0.46" />
  <circle cx="56.86" cy="46.15" r="1.57" fill="#E8E5FF" opacity="0.34" />
  <circle cx="60.48" cy="70.66" r="3.38" fill="#B3C5FF" opacity="0.63" />
  <circle cx="16.63" cy="51.9" r="2.77" fill="#A0C4FF" opacity="0.57" />
  <circle cx="47.44" cy="30.03" r="3.17" fill="#B49CFF" opacity="0.34" />
  <circle cx="45.95" cy="73.22" r="3.3" fill="#B49CFF" opacity="0.46" />
  <circle cx="37.08" cy="77.28" r="1.43" fill="#8ECAE6" opacity="0.25" />
  <circle cx="77.79" cy="46.33" r="2.82" fill="#B49CFF" opacity="0.39" />
  <circle cx="14.57" cy="76.1" r="2.52" fill="#8ECAE6" opacity="0.46" />
  <circle cx="51.66" cy="12.17" r="3.69" fill="#8ECAE6" opacity="0.61" />
  <circle cx="22.65" cy="69.56" r="1.42" fill="#D9CDF7" opacity="0.59" />
  <circle cx="75.21" cy="27.28" r="1.89" fill="#E8E5FF" opacity="0.27" />
  <circle cx="80.35" cy="21.33" r="3.12" fill="#8ECAE6" opacity="0.35" />
  <circle cx="79.53" cy="71.71" r="3.48" fill="#C0B9DD" opacity="0.48" />
  <circle cx="54.69" cy="73.79" r="2.32" fill="#C0B9DD" opacity="0.57" />
  <circle cx="64.96" cy="32.58" r="3.38" fill="#8ECAE6" opacity="0.32" />
  <circle cx="86.53" cy="12.2" r="3.89" fill="#C0B9DD" opacity="0.45" />
  <circle cx="12.84" cy="48.81" r="3.42" fill="#A9C3CE" opacity="0.45" />
  <circle cx="48.84" cy="28.36" r="1.32" fill="#E8E5FF" opacity="0.39" />
  <circle cx="79.7" cy="57.39" r="3.83" fill="#B49CFF" opacity="0.57" />
  <circle cx="48.09" cy="14.31" r="1.39" fill="#BDB2FF" opacity="0.37" />
  <circle cx="44.33" cy="22.15" r="2.07" fill="#B49CFF" opacity="0.35" />
  <circle cx="11.39" cy="46.56" r="3.94" fill="#E8E5FF" opacity="0.61" />
  <circle cx="20.57" cy="34.67" r="3.29" fill="#A9C3CE" opacity="0.46" />
  <circle cx="52.53" cy="53.29" r="1.94" fill="#BEE3DB" opacity="0.5" />
  <circle cx="53.29" cy="45.88" r="2.61" fill="#E8E5FF" opacity="0.49" />
  <circle cx="78.9" cy="66.63" r="2.01" fill="#A9C3CE" opacity="0.26" />
  <circle cx="60.99" cy="25.97" r="3.56" fill="#B3C5FF" opacity="0.47" />
  <circle cx="42.31" cy="73.99" r="1.43" fill="#B3C5FF" opacity="0.41" />
  <circle cx="86.65" cy="47.78" r="1.44" fill="#C0B9DD" opacity="0.52" />
  <circle cx="17.61" cy="65.72" r="2.29" fill="#D9CDF7" opacity="0.33" />
  <circle cx="84.88" cy="56.04" r="1.95" fill="#BEE3DB" opacity="0.62" />
  <circle cx="68.73" cy="17.58" r="1.75" fill="#A0C4FF" opacity="0.49" />
  <circle cx="56.52" cy="26.66" r="2.42" fill="#BEE3DB" opacity="0.32" />
  <circle cx="38.46" cy="40.03" r="2.55" fill="#E8E5FF" opacity="0.34" />
  <circle cx="26.07" cy="18.33" r="1.43" fill="#C0B9DD" opacity="0.43" />
  <circle cx="84.0" cy="42.41" r="2.98" fill="#C8B6FF" opacity="0.27" />
  <circle cx="86.49" cy="12.48" r="3.17" fill="#BEE3DB" opacity="0.54" />
  <circle cx="52.58" cy="49.0" r="1.96" fill="#CAE9FF" opacity="0.52" />
  <circle cx="59.77" cy="42.39" r="3.77" fill="#A0C4FF" opacity="0.64" />
  <circle cx="21.19" cy="22.71" r="1.57" fill="#E8E5FF" opacity="0.39" />
  <circle cx="82.47" cy="54.77" r="3.78" fill="#BEE3DB" opacity="0.49" />
  <circle cx="31.22" cy="40.46" r="3.56" fill="#A9C3CE" opacity="0.48" />
  <circle cx="19.6" cy="50.49" r="1.79" fill="#A0C4FF" opacity="0.41" />
  <circle cx="50.83" cy="24.98" r="1.29" fill="#BDB2FF" opacity="0.51" />
  <circle cx="27.41" cy="28.6" r="1.32" fill="#BEE3DB" opacity="0.49" />
  <circle cx="76.24" cy="36.7" r="2.81" fill="#8ECAE6" opacity="0.51" />
  <circle cx="31.57" cy="59.75" r="1.86" fill="#B3C5FF" opacity="0.38" />
  <circle cx="46.65" cy="23.56" r="1.6" fill="#CAE9FF" opacity="0.34" />
  <circle cx="13.86" cy="25.54" r="1.25" fill="#C0B9DD" opacity="0.29" />
  <circle cx="35.72" cy="63.36" r="2.24" fill="#C8B6FF" opacity="0.62" />
  <circle cx="56.07" cy="16.31" r="3.87" fill="#CAE9FF" opacity="0.42" />
  <circle cx="51.92" cy="69.02" r="2.61" fill="#D9CDF7" opacity="0.61" />
  <circle cx="35.21" cy="74.6" r="1.36" fill="#CAE9FF" opacity="0.53" />
  <circle cx="37.63" cy="41.04" r="3.94" fill="#E8E5FF" opacity="0.58" />
  <circle cx="22.8" cy="22.21" r="2.86" fill="#C0B9DD" opacity="0.57" />
  <circle cx="87.75" cy="52.13" r="2.14" fill="#B3C5FF" opacity="0.57" />
  <circle cx="12.58" cy="69.95" r="1.22" fill="#A9C3CE" opacity="0.58" />
  <circle cx="15.65" cy="56.54" r="2.55" fill="#BEE3DB" opacity="0.27" />
  <circle cx="31.28" cy="36.63" r="3.42" fill="#E8E5FF" opacity="0.63" />
  <circle cx="81.23" cy="17.4" r="3.86" fill="#C8B6FF" opacity="0.37" />
  <circle cx="81.18" cy="72.05" r="1.39" fill="#B49CFF" opacity="0.54" />
  <circle cx="91.1" cy="50.31" r="3.61" fill="#D9CDF7" opacity="0.28" />
  <circle cx="74.85" cy="27.4" r="2.72" fill="#C8B6FF" opacity="0.37" />
  <circle cx="79.21" cy="45.24" r="3.72" fill="#BDB2FF" opacity="0.3" />
  <circle cx="36.45" cy="77.11" r="3.74" fill="#CAE9FF" opacity="0.42" />
  <circle cx="67.52" cy="57.72" r="2.82" fill="#C0B9DD" opacity="0.45" />
  <circle cx="89.03" cy="17.59" r="3.13" fill="#B49CFF" opacity="0.6" />
  <circle cx="23.08" cy="68.61" r="2.1" fill="#E8E5FF" opacity="0.61" />
  <circle cx="21.87" cy="32.27" r="2.53" fill="#8ECAE6" opacity="0.53" />
  <circle cx="55.1" cy="73.45" r="3.07" fill="#D9CDF7" opacity="0.37" />
  <circle cx="16.03" cy="63.14" r="2.74" fill="#A0C4FF" opacity="0.28" />
  <circle cx="48.41" cy="67.45" r="1.45" fill="#BEE3DB" opacity="0.51" />
  <circle cx="82.69" cy="29.22" r="2.74" fill="#E8E5FF" opacity="0.42" />
  <circle cx="36.75" cy="43.01" r="2.77" fill="#E8E5FF" opacity="0.43" />
  <circle cx="38.18" cy="38.04" r="2.47" fill="#B49CFF" opacity="0.51" />
  <circle cx="8.21" cy="14.97" r="3.38" fill="#B49CFF" opacity="0.3" />
  <circle cx="47.86" cy="41.23" r="3.9" fill="#C8B6FF" opacity="0.5" />
  <circle cx="12.42" cy="54.78" r="3.73" fill="#BDB2FF" opacity="0.59" />
  <circle cx="60.28" cy="55.5" r="3.72" fill="#BDB2FF" opacity="0.56" />
  <circle cx="79.78" cy="43.01" r="2.99" fill="#E8E5FF" opacity="0.36" />
  <circle cx="74.94" cy="39.66" r="3.62" fill="#A9C3CE" opacity="0.55" />
  <circle cx="88.0" cy="57.37" r="1.21" fill="#C8B6FF" opacity="0.26" />
  <circle cx="15.28" cy="49.93" r="3.64" fill="#E8E5FF" opacity="0.34" />
  <circle cx="75.66" cy="28.49" r="2.61" fill="#B49CFF" opacity="0.52" />
  <circle cx="30.08" cy="15.97" r="3.54" fill="#BDB2FF" opacity="0.34" />
  <circle cx="35.14" cy="18.32" r="1.88" fill="#8ECAE6" opacity="0.5" />
  <circle cx="9.23" cy="49.95" r="2.81" fill="#B49CFF" opacity="0.35" />
  <circle cx="8.11" cy="42.57" r="2.22" fill="#B3C5FF" opacity="0.42" />
  <circle cx="30.26" cy="43.66" r="1.94" fill="#B49CFF" opacity="0.41" />
  <circle cx="49.14" cy="23.52" r="2.53" fill="#E8E5FF" opacity="0.64" />
  <circle cx="42.21" cy="75.35" r="2.67" fill="#B3C5FF" opacity="0.26" />
  <circle cx="24.72" cy="42.6" r="3.11" fill="#C8B6FF" opacity="0.61" />
  <circle cx="23.17" cy="35.21" r="3.12" fill="#BDB2FF" opacity="0.62" />
  <circle cx="26.83" cy="56.33" r="3.64" fill="#BEE3DB" opacity="0.53" />
  <circle cx="68.2" cy="46.78" r="2.08" fill="#C0B9DD" opacity="0.46" />
  <circle cx="32.01" cy="17.95" r="3.95" fill="#C8B6FF" opacity="0.45" />
  <circle cx="90.96" cy="31.2" r="1.67" fill="#A9C3CE" opacity="0.28" />
  <circle cx="31.2" cy="34.52" r="3.98" fill="#B49CFF" opacity="0.28" />
  <circle cx="17.43" cy="56.22" r="2.24" fill="#A9C3CE" opacity="0.41" />
  <circle cx="42.35" cy="55.16" r="1.39" fill="#C8B6FF" opacity="0.28" />
  <circle cx="50.22" cy="42.27" r="3.39" fill="#B3C5FF" opacity="0.36" />
  <circle cx="31.62" cy="76.65" r="1.47" fill="#BEE3DB" opacity="0.49" />
  <circle cx="10.8" cy="42.15" r="3.32" fill="#BDB2FF" opacity="0.55" />
  <circle cx="79.45" cy="77.71" r="3.74" fill="#BDB2FF" opacity="0.33" />
  <circle cx="15.03" cy="72.61" r="3.59" fill="#C8B6FF" opacity="0.48" />
  <circle cx="53.11" cy="55.85" r="2.11" fill="#C0B9DD" opacity="0.3" />
  <circle cx="9.94" cy="16.69" r="1.94" fill="#CAE9FF" opacity="0.58" />
  <circle cx="26.63" cy="19.27" r="1.44" fill="#B3C5FF" opacity="0.32" />
  <circle cx="73.38" cy="60.13" r="1.22" fill="#A0C4FF" opacity="0.55" />
  <circle cx="24.29" cy="32.01" r="1.63" fill="#A9C3CE" opacity="0.46" />
  <circle cx="10.21" cy="53.65" r="3.38" fill="#CAE9FF" opacity="0.27" />
  <circle cx="45.14" cy="43.31" r="3.13" fill="#C8B6FF" opacity="0.6" />
  <circle cx="61.6" cy="59.8" r="2.67" fill="#A9C3CE" opacity="0.43" />
  <circle cx="20.5" cy="32.45" r="1.8" fill="#B3C5FF" opacity="0.61" />
  <circle cx="89.19" cy="56.44" r="3.14" fill="#C8B6FF" opacity="0.51" />
  <circle cx="68.18" cy="65.91" r="2.28" fill="#E8E5FF" opacity="0.55" />
  <circle cx="68.68" cy="13.06" r="2.38" fill="#A9C3CE" opacity="0.26" />
  <circle cx="19.95" cy="37.0" r="2.35" fill="#E8E5FF" opacity="0.4" />
  <circle cx="78.17" cy="39.14" r="1.47" fill="#BEE3DB" opacity="0.43" />
  <circle cx="49.83" cy="21.41" r="1.44" fill="#C8B6FF" opacity="0.35" />
  <circle cx="33.85" cy="58.73" r="1.36" fill="#C8B6FF" opacity="0.59" />
  <circle cx="34.06" cy="13.65" r="3.23" fill="#B3C5FF" opacity="0.35" />
  <circle cx="76.31" cy="14.2" r="2.99" fill="#B3C5FF" opacity="0.5" />
  <circle cx="79.93" cy="64.49" r="3.74" fill="#E8E5FF" opacity="0.47" />
  <circle cx="67.93" cy="48.88" r="2.69" fill="#CAE9FF" opacity="0.65" />
  <circle cx="73.42" cy="61.62" r="2.35" fill="#C8B6FF" opacity="0.43" />
  <circle cx="28.74" cy="31.19" r="3.92" fill="#CAE9FF" opacity="0.52" />
  <circle cx="45.49" cy="38.25" r="2.92" fill="#BDB2FF" opacity="0.54" />
  <circle cx="14.09" cy="54.58" r="3.06" fill="#D9CDF7" opacity="0.58" />
  <circle cx="24.78" cy="35.88" r="2.6" fill="#B49CFF" opacity="0.27" />
  <circle cx="19.44" cy="32.29" r="1.86" fill="#B3C5FF" opacity="0.29" />
  <circle cx="46.32" cy="73.93" r="3.47" fill="#E8E5FF" opacity="0.52" />
  <circle cx="63.27" cy="23.94" r="2.86" fill="#B49CFF" opacity="0.52" />
  <circle cx="25.32" cy="53.03" r="3.93" fill="#8ECAE6" opacity="0.61" />
  <circle cx="81.68" cy="33.6" r="1.97" fill="#BEE3DB" opacity="0.51" />
  <circle cx="63.64" cy="18.44" r="2.23" fill="#BDB2FF" opacity="0.58" />
  <circle cx="79.47" cy="63.06" r="3.52" fill="#B3C5FF" opacity="0.55" />
  <circle cx="24.79" cy="42.35" r="2.31" fill="#C0B9DD" opacity="0.56" />
  <circle cx="75.6" cy="75.9" r="3.51" fill="#A9C3CE" opacity="0.45" />
  <circle cx="53.09" cy="25.75" r="1.93" fill="#8ECAE6" opacity="0.4" />
  <circle cx="29.31" cy="31.13" r="2.98" fill="#E8E5FF" opacity="0.39" />
  <circle cx="29.29" cy="36.56" r="2.29" fill="#A9C3CE" opacity="0.31" />
  <circle cx="45.8" cy="48.72" r="2.25" fill="#CAE9FF" opacity="0.59" />
  <circle cx="67.23" cy="70.44" r="3.55" fill="#8ECAE6" opacity="0.34" />
  <circle cx="84.34" cy="45.61" r="3.09" fill="#D9CDF7" opacity="0.6" />
  <circle cx="57.56" cy="24.99" r="3.05" fill="#A0C4FF" opacity="0.45" />
  <circle cx="55.65" cy="48.55" r="2.43" fill="#CAE9FF" opacity="0.26" />
  <circle cx="22.75" cy="23.64" r="3.54" fill="#8ECAE6" opacity="0.58" />
  <circle cx="25.5" cy="65.29" r="2.84" fill="#A0C4FF" opacity="0.65" />
  <circle cx="86.2" cy="12.82" r="2.51" fill="#C8B6FF" opacity="0.65" />
  <circle cx="13.86" cy="55.57" r="1.54" fill="#E8E5FF" opacity="0.54" />
  <circle cx="65.01" cy="37.28" r="2.64" fill="#C8B6FF" opacity="0.42" />
  <circle cx="31.02" cy="66.68" r="3.26" fill="#A9C3CE" opacity="0.46" />
  <circle cx="74.81" cy="62.89" r="1.21" fill="#A9C3CE" opacity="0.52" />
  <circle cx="28.15" cy="13.45" r="3.39" fill="#B49CFF" opacity="0.33" />
  <circle cx="44.14" cy="33.49" r="2.99" fill="#8ECAE6" opacity="0.44" />
  <circle cx="44.3" cy="41.48" r="2.23" fill="#CAE9FF" opacity="0.46" />
  <circle cx="75.7" cy="54.88" r="3.57" fill="#C8B6FF" opacity="0.27" />
  <circle cx="81.26" cy="44.6" r="3.65" fill="#A0C4FF" opacity="0.33" />
  <circle cx="49.46" cy="16.95" r="1.91" fill="#8ECAE6" opacity="0.4" />
  <circle cx="38.94" cy="59.75" r="2.95" fill="#E8E5FF" opacity="0.41" />
  <circle cx="69.93" cy="75.3" r="2.08" fill="#8ECAE6" opacity="0.53" />
  <circle cx="66.06" cy="48.96" r="3.5" fill="#CAE9FF" opacity="0.3" />
  <circle cx="72.01" cy="67.25" r="1.27" fill="#C8B6FF" opacity="0.64" />
  <circle cx="29.92" cy="47.95" r="3.89" fill="#B49CFF" opacity="0.46" />
  <circle cx="70.72" cy="18.93" r="3.95" fill="#C0B9DD" opacity="0.4" />
  <circle cx="88.03" cy="52.33" r="1.83" fill="#BEE3DB" opacity="0.48" />
  <circle cx="83.37" cy="44.12" r="3.07" fill="#BEE3DB" opacity="0.39" />
  <circle cx="50.04" cy="63.81" r="1.72" fill="#C8B6FF" opacity="0.35" />
  <circle cx="71.53" cy="13.54" r="2.92" fill="#D9CDF7" opacity="0.44" />
  <circle cx="43.96" cy="22.59" r="3.7" fill="#C8B6FF" opacity="0.31" />
  <circle cx="13.23" cy="26.67" r="1.42" fill="#B3C5FF" opacity="0.62" />
  <circle cx="62.82" cy="47.26" r="1.46" fill="#BDB2FF" opacity="0.5" />
  <circle cx="76.1" cy="27.89" r="3.6" fill="#CAE9FF" opacity="0.26" />
  <circle cx="78.07" cy="68.63" r="3.25" fill="#B3C5FF" opacity="0.47" />
  <circle cx="37.68" cy="16.22" r="2.33" fill="#A0C4FF" opacity="0.39" />
  <circle cx="27.55" cy="46.24" r="1.32" fill="#8ECAE6" opacity="0.38" />
  <circle cx="22.42" cy="72.67" r="3.79" fill="#E8E5FF" opacity="0.55" />
  <circle cx="66.82" cy="54.51" r="2.58" fill="#E8E5FF" opacity="0.33" />
  <circle cx="86.02" cy="26.87" r="3.97" fill="#A0C4FF" opacity="0.63" />
  <circle cx="80.29" cy="35.24" r="2.29" fill="#B49CFF" opacity="0.3" />
  <circle cx="21.86" cy="20.86" r="3.06" fill="#D9CDF7" opacity="0.62" />
  <circle cx="83.39" cy="49.58" r="3.65" fill="#A9C3CE" opacity="0.42" />
  <circle cx="85.47" cy="30.28" r="3.0" fill="#BEE3DB" opacity="0.53" />
  <circle cx="15.44" cy="49.89" r="1.97" fill="#C8B6FF" opacity="0.32" />
  <circle cx="49.42" cy="57.98" r="3.28" fill="#A9C3CE" opacity="0.38" />
  <circle cx="78.37" cy="60.76" r="2.75" fill="#A0C4FF" opacity="0.65" />
  <circle cx="31.01" cy="43.28" r="3.88" fill="#E8E5FF" opacity="0.52" />
  <circle cx="24.8" cy="44.46" r="1.52" fill="#E8E5FF" opacity="0.49" />
  <circle cx="48.43" cy="30.03" r="1.3" fill="#D9CDF7" opacity="0.32" />
  <circle cx="21.04" cy="43.41" r="2.51" fill="#8ECAE6" opacity="0.33" />
  <circle cx="62.17" cy="20.72" r="3.31" fill="#B49CFF" opacity="0.59" />
  <circle cx="44.41" cy="16.87" r="2.76" fill="#A0C4FF" opacity="0.33" />
  <circle cx="20.9" cy="52.82" r="2.59" fill="#B3C5FF" opacity="0.31" />
  <circle cx="48.51" cy="38.07" r="3.06" fill="#B3C5FF" opacity="0.56" />
  <circle cx="8.52" cy="70.47" r="3.44" fill="#B49CFF" opacity="0.43" />
  <circle cx="43.78" cy="12.07" r="2.82" fill="#C8B6FF" opacity="0.34" />
  <circle cx="87.96" cy="21.17" r="2.3" fill="#B49CFF" opacity="0.35" />
  <circle cx="52.02" cy="14.21" r="1.28" fill="#CAE9FF" opacity="0.57" />
  <circle cx="74.09" cy="49.61" r="2.87" fill="#BEE3DB" opacity="0.37" />
  <circle cx="26.98" cy="23.73" r="3.57" fill="#C0B9DD" opacity="0.48" />
  <circle cx="14.02" cy="16.53" r="2.16" fill="#E8E5FF" opacity="0.35" />
  <circle cx="15.28" cy="68.42" r="1.47" fill="#A0C4FF" opacity="0.55" />
  <circle cx="15.12" cy="27.5" r="2.25" fill="#E8E5FF" opacity="0.43" />
  <circle cx="78.85" cy="51.02" r="3.55" fill="#BDB2FF" opacity="0.47" />
  <circle cx="16.2" cy="65.47" r="2.65" fill="#A0C4FF" opacity="0.42" />
  <circle cx="19.05" cy="22.95" r="4.0" fill="#A0C4FF" opacity="0.34" />
  <circle cx="55.14" cy="32.86" r="2.74" fill="#B49CFF" opacity="0.54" />
  <circle cx="53.57" cy="71.02" r="2.72" fill="#BEE3DB" opacity="0.27" />
  <circle cx="73.33" cy="73.06" r="1.37" fill="#BEE3DB" opacity="0.51" />
  <circle cx="30.88" cy="64.39" r="3.5" fill="#B49CFF" opacity="0.29" />
  <circle cx="55.03" cy="67.63" r="3.19" fill="#BDB2FF" opacity="0.37" />
  <circle cx="51.14" cy="13.94" r="2.58" fill="#B49CFF" opacity="0.47" />
  <circle cx="41.54" cy="28.97" r="1.43" fill="#8ECAE6" opacity="0.56" />
  <circle cx="19.4" cy="46.1" r="3.13" fill="#C8B6FF" opacity="0.58" />
  <circle cx="41.47" cy="43.29" r="2.67" fill="#E8E5FF" opacity="0.56" />
  <circle cx="61.21" cy="46.1" r="3.34" fill="#BDB2FF" opacity="0.6" />
  <circle cx="11.8" cy="74.93" r="3.84" fill="#C8B6FF" opacity="0.45" />
  <circle cx="89.43" cy="59.25" r="3.47" fill="#E8E5FF" opacity="0.61" />
  <circle cx="80.93" cy="69.64" r="2.83" fill="#A9C3CE" opacity="0.45" />
  <circle cx="12.89" cy="66.82" r="3.6" fill="#C0B9DD" opacity="0.39" />
  <circle cx="72.65" cy="52.94" r="2.19" fill="#B49CFF" opacity="0.44" />
  <circle cx="18.76" cy="27.99" r="3.9" fill="#C0B9DD" opacity="0.48" />
  <circle cx="64.69" cy="56.72" r="2.8" fill="#CAE9FF" opacity="0.39" />
  <circle cx="88.96" cy="13.2" r="2.48" fill="#B3C5FF" opacity="0.25" />
  <circle cx="22.94" cy="57.66" r="3.7" fill="#CAE9FF" opacity="0.48" />
  <circle cx="47.15" cy="32.36" r="3.7" fill="#D9CDF7" opacity="0.47" />
  <circle cx="14.55" cy="34.11" r="1.47" fill="#C0B9DD" opacity="0.29" />
  <circle cx="85.44" cy="54.05" r="2.18" fill="#D9CDF7" opacity="0.43" />
  <circle cx="28.16" cy="48.76" r="1.8" fill="#A0C4FF" opacity="0.27" />
  <circle cx="43.26" cy="42.04" r="3.47" fill="#E8E5FF" opacity="0.42" />
  <circle cx="35.83" cy="23.26" r="1.69" fill="#C0B9DD" opacity="0.27" />
  <circle cx="51.19" cy="75.06" r="3.72" fill="#CAE9FF" opacity="0.37" />
  <circle cx="62.89" cy="13.36" r="1.56" fill="#CAE9FF" opacity="0.52" />
  <circle cx="59.71" cy="56.48" r="2.42" fill="#CAE9FF" opacity="0.5" />
  <circle cx="64.77" cy="34.12" r="2.47" fill="#B49CFF" opacity="0.47" />
  <circle cx="61.39" cy="50.29" r="1.88" fill="#D9CDF7" opacity="0.57" />
  <circle cx="32.73" cy="62.84" r="3.57" fill="#A9C3CE" opacity="0.52" />
  <circle cx="11.62" cy="74.58" r="1.85" fill="#BDB2FF" opacity="0.43" />
  <circle cx="19.6" cy="31.81" r="3.33" fill="#A0C4FF" opacity="0.51" />
  <circle cx="31.72" cy="14.75" r="3.72" fill="#CAE9FF" opacity="0.5" />
  <circle cx="11.76" cy="46.72" r="2.1" fill="#B3C5FF" opacity="0.41" />
  <circle cx="86.18" cy="33.42" r="1.38" fill="#8ECAE6" opacity="0.54" />
  <circle cx="54.89" cy="27.16" r="1.53" fill="#C8B6FF" opacity="0.43" />
  <circle cx="76.86" cy="53.78" r="3.38" fill="#BDB2FF" opacity="0.34" />
  <circle cx="27.29" cy="37.55" r="3.8" fill="#A0C4FF" opacity="0.4" />
  <circle cx="9.79" cy="50.07" r="2.21" fill="#D9CDF7" opacity="0.65" />
  <circle cx="36.58" cy="53.85" r="1.6" fill="#8ECAE6" opacity="0.6" />
  <circle cx="16.99" cy="23.16" r="2.38" fill="#BDB2FF" opacity="0.54" />
  <circle cx="35.97" cy="74.94" r="1.56" fill="#BEE3DB" opacity="0.4" />
  <circle cx="12.67" cy="28.9" r="2.34" fill="#A0C4FF" opacity="0.27" />
  <circle cx="86.9" cy="31.21" r="1.79" fill="#C0B9DD" opacity="0.6" />
  <circle cx="29.83" cy="74.51" r="1.87" fill="#A0C4FF" opacity="0.27" />
  <circle cx="70.36" cy="60.81" r="2.79" fill="#D9CDF7" opacity="0.3" />
  <circle cx="28.3" cy="52.37" r="1.71" fill="#CAE9FF" opacity="0.33" />
  <circle cx="33.85" cy="13.41" r="3.83" fill="#B3C5FF" opacity="0.32" />
  <circle cx="52.33" cy="58.64" r="3.08" fill="#B3C5FF" opacity="0.25" />
  <circle cx="14.39" cy="42.13" r="3.08" fill="#CAE9FF" opacity="0.56" />
  <circle cx="78.44" cy="74.52" r="2.6" fill="#BEE3DB" opacity="0.42" />
  <circle cx="66.68" cy="52.07" r="3.52" fill="#D9CDF7" opacity="0.63" />
  <circle cx="19.37" cy="62.67" r="2.84" fill="#CAE9FF" opacity="0.59" />
  <circle cx="8.37" cy="25.51" r="2.24" fill="#BDB2FF" opacity="0.45" />
  <circle cx="10.17" cy="13.47" r="1.98" fill="#B49CFF" opacity="0.47" />
  <circle cx="73.82" cy="77.28" r="3.85" fill="#A9C3CE" opacity="0.52" />
  <circle cx="46.16" cy="55.71" r="3.1" fill="#C8B6FF" opacity="0.58" />
  <circle cx="74.72" cy="50.72" r="3.35" fill="#E8E5FF" opacity="0.57" />
  <circle cx="24.3" cy="54.85" r="3.11" fill="#D9CDF7" opacity="0.31" />
  <circle cx="65.61" cy="41.92" r="3.96" fill="#A9C3CE" opacity="0.6" />
  <circle cx="75.11" cy="42.31" r="1.93" fill="#B49CFF" opacity="0.35" />
  <circle cx="48.86" cy="76.76" r="3.7" fill="#BEE3DB" opacity="0.64" />
  <circle cx="74.48" cy="13.61" r="1.82" fill="#E8E5FF" opacity="0.4" />
  <circle cx="54.72" cy="42.98" r="3.27" fill="#BEE3DB" opacity="0.45" />
  <circle cx="46.75" cy="21.59" r="2.06" fill="#A0C4FF" opacity="0.27" />
  <circle cx="79.82" cy="43.57" r="3.01" fill="#B49CFF" opacity="0.51" />
  <circle cx="38.93" cy="35.6" r="1.26" fill="#D9CDF7" opacity="0.5" />
  <circle cx="69.81" cy="64.28" r="3.77" fill="#BEE3DB" opacity="0.28" />
  <circle cx="52.42" cy="30.35" r="1.86" fill="#C0B9DD" opacity="0.52" />
  <circle cx="19.06" cy="14.09" r="2.35" fill="#D9CDF7" opacity="0.37" />
  <circle cx="79.69" cy="57.23" r="1.35" fill="#A0C4FF" opacity="0.48" />
  <circle cx="16.63" cy="39.66" r="2.77" fill="#B49CFF" opacity="0.49" />
  <circle cx="35.75" cy="42.68" r="1.82" fill="#8ECAE6" opacity="0.6" />
  <circle cx="23.09" cy="53.49" r="2.78" fill="#D9CDF7" opacity="0.46" />
  <circle cx="77.59" cy="68.22" r="1.44" fill="#C0B9DD" opacity="0.25" />
  <circle cx="54.31" cy="61.18" r="1.8" fill="#BDB2FF" opacity="0.62" />
  <circle cx="34.03" cy="60.22" r="1.71" fill="#A9C3CE" opacity="0.46" />
  <circle cx="67.73" cy="40.27" r="1.54" fill="#C8B6FF" opacity="0.51" />
  <circle cx="64.98" cy="26.49" r="1.7" fill="#CAE9FF" opacity="0.55" />
  <circle cx="74.72" cy="55.67" r="2.78" fill="#CAE9FF" opacity="0.52" />
  <circle cx="21.46" cy="51.89" r="3.16" fill="#A9C3CE" opacity="0.62" />
  <circle cx="62.59" cy="21.05" r="1.98" fill="#CAE9FF" opacity="0.27" />
  <circle cx="72.8" cy="70.77" r="3.95" fill="#C0B9DD" opacity="0.6" />
  <circle cx="14.96" cy="38.81" r="3.05" fill="#C0B9DD" opacity="0.46" />
  <circle cx="58.82" cy="12.46" r="1.34" fill="#E8E5FF" opacity="0.56" />
  <circle cx="18.6" cy="18.51" r="3.31" fill="#BDB2FF" opacity="0.65" />
  <circle cx="22.65" cy="62.26" r="1.87" fill="#A0C4FF" opacity="0.27" />
  <circle cx="17.53" cy="13.84" r="2.22" fill="#C8B6FF" opacity="0.46" />
  <circle cx="25.37" cy="46.08" r="3.18" fill="#C0B9DD" opacity="0.55" />
  <circle cx="68.72" cy="12.5" r="1.22" fill="#D9CDF7" opacity="0.57" />
  <circle cx="60.29" cy="13.86" r="1.37" fill="#D9CDF7" opacity="0.61" />
  <circle cx="11.35" cy="55.7" r="3.55" fill="#A0C4FF" opacity="0.57" />
  <circle cx="65.52" cy="72.9" r="3.07" fill="#B49CFF" opacity="0.53" />
  <circle cx="10.37" cy="41.26" r="2.83" fill="#A9C3CE" opacity="0.36" />
  <circle cx="43.65" cy="46.28" r="1.37" fill="#C8B6FF" opacity="0.54" />
  <circle cx="86.07" cy="14.08" r="2.89" fill="#A0C4FF" opacity="0.28" />
  <circle cx="28.89" cy="33.68" r="2.4" fill="#B49CFF" opacity="0.52" />
  <circle cx="89.7" cy="29.33" r="3.19" fill="#C8B6FF" opacity="0.42" />
  <circle cx="16.83" cy="55.55" r="2.26" fill="#B49CFF" opacity="0.48" />
  <circle cx="41.87" cy="66.03" r="1.94" fill="#B49CFF" opacity="0.41" />
  <circle cx="33.16" cy="22.28" r="1.47" fill="#8ECAE6" opacity="0.35" />
  <circle cx="55.56" cy="37.6" r="3.29" fill="#D9CDF7" opacity="0.36" />
  <circle cx="42.26" cy="74.27" r="3.2" fill="#A9C3CE" opacity="0.32" />
  <circle cx="16.75" cy="43.62" r="1.25" fill="#D9CDF7" opacity="0.63" />
  <circle cx="38.69" cy="47.11" r="2.6" fill="#BDB2FF" opacity="0.59" />
  <circle cx="67.72" cy="63.8" r="1.67" fill="#C8B6FF" opacity="0.45" />
  <circle cx="39.26" cy="57.23" r="3.0" fill="#D9CDF7" opacity="0.33" />
  <circle cx="11.31" cy="17.21" r="1.82" fill="#D9CDF7" opacity="0.43" />
  </g>
</svg>